<?xml version="1.0" encoding="utf-8"?>
<svg viewBox="0 0 160 160" width="160" height="160" xmlns="http://www.w3.org/2000/svg">
  <path d="M 80 0 C 120 0 150 20 150 61 L 150 109 L 90 160 L 90 99 L 100 99 C 120 99 130 99 130 80 C 130 71 120 61 100 61 L 60 61 C 40 61 30 71 30 80 C 30 99 40 99 60 99 L 70 99 L 70 160 L 10 109 L 10 61 C 10 20 40 0 80 0 Z" style="fill: black; stroke: none;"/>
  <circle style="fill: black; stroke: none;" cx="60" cy="80" r="10"/>
  <circle style="fill: black; stroke: none;" cx="101" cy="81" r="11"/>
</svg>